<svg id="Camada_1" data-name="Camada 1" xmlns="http://www.w3.org/2000/svg" viewBox="0 0 380 380"><defs><style>.cls-1{fill:none;}.cls-2{fill:#fff;}</style></defs><title>auditorias</title><rect class="cls-1" width="380" height="380" rx="22.65" ry="22.65"/><path class="cls-2" d="M2600-1998a189.79,189.79,0,0,0-190,190,189.79,189.79,0,0,0,190,190,189.79,189.79,0,0,0,190-190C2790-1912.58,2705.1-1998,2600-1998Zm0,351a160.85,160.85,0,0,1-161-161,160.85,160.85,0,0,1,161-161,160.85,160.85,0,0,1,161,161A160.85,160.85,0,0,1,2600-1647Z" transform="translate(-2410 1998)"/><path class="cls-2" d="M2698.48-1882.42c-45.64,43.83-78,96.31-109.8,149.23l-52.49-75.27,11.87-11.13,39.93,28.37c8.38-10,16.41-19.92,24.79-29.53a426.64,426.64,0,0,1,59.78-55.94C2680.47-1882.86,2688.51-1883.39,2698.48-1882.42Z" transform="translate(-2410 1998)"/></svg>