<svg id="svg2" xmlns="http://www.w3.org/2000/svg" viewBox="0 0 205.51 46.55"><defs><style>.cls-1{fill:#fff;}.cls-2{fill:#f6822a;}</style></defs><title>caixa_branco</title><g id="g2995"><g id="g2997"><path id="path3001" class="cls-1" d="M66.62-67.46L61.3-54.19h7.37l-2-13.32,0,0.05h0ZM38.43-37L60.26-82H76.77L86-37H71.48l-1.07-6H56.36l-3.23,6H38.43Zm54.4,0L99.16-82h14.6L107.44-37H92.83Zm97.11-30.5L184.6-54.19H192ZM161.73-37L183.56-82h16.5L209.27-37H194.78l-1.07-6H179.65l-3.23,6H161.73" transform="translate(-3.76 82.9)"/><path id="path3003" class="cls-1" d="M129.45-58h18.3l12.54,20.76H142L129.45-58" transform="translate(-3.76 82.9)"/><path id="path3005" class="cls-2" d="M131.35-61.22h18.91l16.42-20.68H147.77L131.35-61.22" transform="translate(-3.76 82.9)"/><path id="path3007" class="cls-2" d="M112.44-37.14h18.91l16.42-20.93H128.86L112.44-37.14" transform="translate(-3.76 82.9)"/><path id="path3009" class="cls-1" d="M119.26-82.14h17.65L149-61.22H131.35L119.26-82.14" transform="translate(-3.76 82.9)"/><path id="path3011" class="cls-1" d="M38.86-80.35l-1.4,13.22c-5.38-7.42-17.86-2.3-18.83,6.95-1.24,11.74,10.76,14.47,17.29,7.56L34.51-39.37a31.42,31.42,0,0,1-5.74,2.2,23.42,23.42,0,0,1-5.61.81,21.72,21.72,0,0,1-6.37-.73,15.58,15.58,0,0,1-5.17-2.5,18.36,18.36,0,0,1-6.4-8.23,23.81,23.81,0,0,1-1.3-11.35,27.82,27.82,0,0,1,2.58-9.29,26.94,26.94,0,0,1,5.6-7.66,23.84,23.84,0,0,1,7.36-5,23.24,23.24,0,0,1,8.64-1.78,21.27,21.27,0,0,1,5.46.58,24.51,24.51,0,0,1,5.29,2" transform="translate(-3.76 82.9)"/></g></g></svg>