<svg id="Camada_1" data-name="Camada 1" xmlns="http://www.w3.org/2000/svg" viewBox="0 0 380 380"><defs><style>.cls-1{fill:none;}.cls-2{fill:#fff;}</style></defs><title>custos_abc</title><rect class="cls-1" width="380" height="380" rx="22.65" ry="22.65"/><path class="cls-2" d="M680.46-1735.85H606.29c-6.85,0-10.84-5.71-8-11.41,1.71-3.42,4.56-4.56,8.56-4.56H755.78c4.56,0.57,8,3.42,8,8a7.8,7.8,0,0,1-8,8H680.46Z" transform="translate(-491.32 2013.15)"/><path class="cls-2" d="M681-1712.46h76.46c4,0.57,6.85,3.42,6.85,7.42s-2.28,7.42-6.28,8a37.67,37.67,0,0,1-8,.57H607.43c-5.71,0-9.7-3.42-9.7-8s3.42-8,9.7-8H681Z" transform="translate(-491.32 2013.15)"/><path class="cls-2" d="M681-1775.79H608c-9.13,0-12-6.85-9.7-11.41,1.71-3.42,5.14-4.56,8.56-4.56h145.5a19.41,19.41,0,0,1,5.71.57,8.78,8.78,0,0,1,5.71,8.56,7.6,7.6,0,0,1-8,6.85H681Z" transform="translate(-491.32 2013.15)"/><path class="cls-2" d="M619.41-1633.15H798.57c15.41-1.14,25.68-9.7,29.1-24V-1986.9c-2.28-13.12-9.7-21.68-22.82-26.25H558.93c-13.12,4.56-21.11,13.69-23.39,27.39a55.36,55.36,0,0,0-.57,9.7v311c0,20,12,32,32,32h52.49Zm-60.48-356h244.2v332.07H558.93v-332.07Z" transform="translate(-491.32 2013.15)"/><path class="cls-2" d="M688.45-1833.42v17.69H671.91v-16c-11.41-.57-22.25-3.42-29.1-7.42l5.14-20a60.07,60.07,0,0,0,28.53,7.42c9.7,0,16.55-4,16.55-10.84,0-6.28-5.71-10.84-18.26-14.83-18.26-6.28-30.81-14.83-30.81-31.38,0-14.83,10.84-26.82,29.1-30.24v-16h16.55v14.83c11.41,0.57,19.4,2.85,24.53,5.71L709-1915c-4.56-1.71-12.55-5.71-24.53-5.71-10.84,0-14.83,4.56-14.83,9.7,0,5.71,5.71,9.13,20.54,14.83,20.54,7.42,28.53,16.55,28.53,32C719.26-1849.39,708.42-1836.84,688.45-1833.42Z" transform="translate(-491.32 2013.15)"/></svg>