<svg id="Camada_1" data-name="Camada 1" xmlns="http://www.w3.org/2000/svg" viewBox="0 0 380 380"><defs><style>.cls-1{fill:none;}.cls-2{fill:#fff;}</style></defs><title>desenvolvimento_sistemas</title><rect class="cls-1" width="380" height="380" rx="22.65" ry="22.65"/><path class="cls-2" d="M953.38-1995.69A21.46,21.46,0,0,0,943-1984.83c-1.19,2.68-1.26,11.75-1.26,147.5,0,140.51.07,144.75,1.41,148.32a22.08,22.08,0,0,0,11.08,11.68l3.87,1.89,118.87,0.39,118.87,0.15-0.6-1.64c-1.19-3.36-.67-11.35,1-14l1.49-2.61-2.09-1.72a18.85,18.85,0,0,1-3.36-4l-1.27-2.16H967.5v-221l151.82,0.39h151.82l0.39,72.08,0.37,72.08,2.89,0.67c2.82,0.67,9.49,6.32,10.23,8.63,0.22,0.89.74,0.89,2.82,0.22a19.19,19.19,0,0,1,5.71-.89h3.19l0.39-107v-106.89l-2.92-4.09c-2.53-4.54-7.81-9-12.2-10.34-2-.6-46.19-0.82-163.42-0.9H957.91ZM1193-1969.43c4.16,1.71,4.91,3.57,4.91,11.68,0,6-.22,7.44-1.49,9.07-2.16,2.68-6,3.72-12,3.35-4.61-.37-5.5-0.67-7.59-2.75-2.23-2.31-2.31-2.45-2.31-9.3,0-7.81.82-10.19,4.39-11.9C1181.81-1970.77,1189.77-1970.84,1193-1969.43Zm39.2,1.64c2,2,2.31,2.9,2.68,7.81,0.67,10.19-2.08,14.13-10.49,14.65q-8.48.56-11.6-3.35c-1.26-1.64-1.49-3-1.49-9.22,0-6.69.15-7.44,1.86-9.52,2.31-2.68,3.5-3,10.94-2.83C1229.49-1970.1,1230.08-1970,1232.24-1967.8Zm34.52-1.64c3.57,1.49,4.84,4.46,4.84,11.08,0,9.75-2,12.35-10,12.94-10.56.89-13.84-2.08-13.84-12.27,0-7.22,1.19-10.19,4.68-11.68C1255.6-1970.77,1263.56-1970.77,1266.76-1969.43Z" transform="translate(-941.7 2012.56)"/><path class="cls-2" d="M1133.54-1894.67a13.14,13.14,0,0,0-4.54,3.5c-2.16,3.13-39.65,120-39.65,123.55,0,10,14.28,14.43,20,6.25,1.94-2.75,39.72-120.36,39.72-123.7,0-3.87-2.31-7.36-6.17-9.37S1137.48-1896.46,1133.54-1894.67Z" transform="translate(-941.7 2012.56)"/><path class="cls-2" d="M1057.73-1855.1c-10.64,4.91-24.47,11.31-30.72,14.21-8.78,4.09-11.9,5.88-13.32,7.81-3.72,4.91-2.75,12.49,2,16,1,0.74,15.17,7.51,31.47,15.1,32.36,15,33.55,15.4,38.46,12,2.9-1.94,5.21-5.95,5.21-9a17,17,0,0,0-1.56-5.43c-1.49-3.13-2.08-3.5-12.87-8.7-6.17-3-14.8-7-19.19-9s-8-3.79-8-4.09,7.66-3.87,17-8.11,18-8.41,19.34-9.23c2.75-1.64,5.36-6.1,5.36-9.23,0-3.42-3-8.48-6-10C1080.2-1865.22,1078.26-1864.7,1057.73-1855.1Z" transform="translate(-941.7 2012.56)"/><path class="cls-2" d="M1154.43-1863.29c-7.51,4.39-9,13.09-3.13,18.3,1.34,1.12,10.34,5.8,20.08,10.26s17.63,8.4,17.63,8.63-8.18,4.16-18.15,8.78c-10.78,5-19,9.23-20.08,10.42a11,11,0,0,0,8.11,18.67c1.94,0,11-3.87,32.58-13.84,16.44-7.66,30.72-14.58,31.61-15.47,5.51-4.91,5.06-14.06-.82-17.93-1-.59-14.8-7.22-30.72-14.65C1162-1863.88,1157.93-1865.3,1154.43-1863.29Z" transform="translate(-941.7 2012.56)"/><path class="cls-2" d="M1253.78-1763.16c-1.34,1.12-1.56,2.31-1.71,7.88l-0.22,6.55-3.72,1.34c-2,.74-4.24,1.56-4.91,1.86-0.89.37-2.23-.74-5.13-4.16-5-6-6-6.55-9.15-4.32-5.73,4.24-10.94,9.23-10.94,10.64,0,0.74,1.64,3.35,3.57,5.65a49.3,49.3,0,0,1,4.09,5.06c0.74,1.19-4.61,9.89-6.1,9.89-0.67-.07-3.35-0.45-6-1-5.58-1.12-7.14-.89-7.81.82a86.25,86.25,0,0,0-2.6,14.88c0,2.83.74,3.27,8.78,4.61,4.54,0.74,5.43,1.12,5.65,2.45,0.15,0.89.67,3.27,1,5.36,0.59,2.75.52,3.87-.07,4.24l-5.73,3.35c-6.32,3.72-6.47,4.76-1.49,13.17,2.08,3.57,4.32,6.69,5,6.92,1.19,0.45,3.35-.52,9.52-4.09l3.72-2.23,4.09,3.65,4,3.65-2.16,6.32c-1.71,4.84-2,6.62-1.41,7.59,0.45,0.67,4.16,2.45,8.33,3.94,5.88,2,7.81,2.45,8.85,1.78,0.74-.45,2.31-3.57,3.5-6.92l2.16-6.1,5.51,0.22,5.58,0.22,2.31,6.32c1.94,5.13,2.68,6.4,4,6.55,1.71,0.22,13.91-3.87,15.69-5.28,1.34-1,1.12-3.27-1-9.3l-2-5.36,2.9-2.6c5.28-4.61,5.43-4.61,11.31-1.19,2.9,1.71,5.73,3,6.32,3,1.49,0,2.83-1.71,6.92-8.78,4.16-7.36,4.16-7.36-2.9-11.68-2.68-1.64-5.06-3.2-5.36-3.42s0-2.83.45-5.73l0.89-5.28,5.28-.82c9.89-1.56,9.82-1.56,8-11.68-0.74-4.09-1.56-7.81-1.94-8.4-0.59-1-5.43-.74-12.35.45-2.68.45-2.68,0.45-5.28-4.24l-2.6-4.76,3.94-4.84c2.23-2.68,4-5.51,4-6.47,0-1.19-1.79-3.2-6.1-6.92-3.42-2.83-6.69-5.21-7.44-5.21s-9.15,8.48-10,10.26c0,0.07-2.45-.74-5.36-1.78l-5.36-2V-1756c0-8.48,0-8.48-9.89-8.48C1256.75-1764.43,1255-1764.13,1253.78-1763.16Zm16,41.06a18.22,18.22,0,0,1,10.78,16.66,16.18,16.18,0,0,1-4.46,12,18.15,18.15,0,0,1-29.53-3.05c-2.75-4.68-2.9-12.27-.37-17.11,1.86-3.57,6.32-7.59,9.89-8.85C1259.84-1723.89,1266.31-1723.67,1269.73-1722.1Z" transform="translate(-941.7 2012.56)"/></svg>