<svg id="Camada_1" data-name="Camada 1" xmlns="http://www.w3.org/2000/svg" viewBox="0 0 380 380"><defs><style>.cls-1{fill:none;}.cls-2{fill:#fff;}</style></defs><title>fnt</title><rect class="cls-1" width="380" height="380" rx="22.65" ry="22.65"/><path class="cls-2" d="M3466.22-1816.68v177.93l31,0.39,30.7-.23,7.06-11.9,7.14-11.89-26.2.39-26-.15v-261.32h308.73v190.06l11.81,19.73,11.81,19.81v-300.87h-356v178Z" transform="translate(-3466 1994.73)"/><path class="cls-2" d="M3614.39-1740.82l-76.78,125.7h77c42.44,0.2,111.73.2,154.16,0.39h77l-76.71-125.86c-42.14-69-76.93-125.45-77.23-125.6S3656.68-1809.89,3614.39-1740.82Zm130.94,15.06,52.89,86.62H3745c-29.3.47-77.23,0.47-106.53,0.39h-53.27l53-87.23c29.16-47.85,53.27-86.88,53.64-86.8S3716.18-1773.53,3745.33-1725.76Z" transform="translate(-3466 1994.73)"/><path class="cls-2" d="M3680-1733.65V-1698h23.63v-71.27H3680v35.64Z" transform="translate(-3466 1994.73)"/><path class="cls-2" d="M3680-1662.19v11.81h23.63V-1674H3680v11.81Z" transform="translate(-3466 1994.73)"/></svg>