<svg id="Camada_1" data-name="Camada 1" xmlns="http://www.w3.org/2000/svg" viewBox="0 0 380.31 379.6"><defs><style>.cls-1{fill:none;}.cls-2{fill:#fff;}</style></defs><title>itens_configuracao</title><rect class="cls-1" x="0.15" width="380.16" height="379.6" rx="22.65" ry="22.65"/><path class="cls-2" d="M3416.62-1942.59l-29-28.3a17.1,17.1,0,0,0-23.84.08L3247.9-1856.13c-6.55,6.47-17.17,6.75-23.69.58s-7.52-17.41-4.5-26.13c5.82-16.86,9.23-46.21-16.9-79.28-26.63-33.69-58-35.63-76.53-32.92-9.11,1.36-11.13,9.77-5,16.63l34.85,38.69a16.4,16.4,0,0,1-1.4,23.42L3121-1885.56a18.39,18.39,0,0,1-24.54-.62l-37.26-36.17c-6.63-6.4-15.2-4.77-16.63,4.38-2.25,14.23-1.51,36.52,15.43,60.87,29.85,42.92,63.43,44.47,82.66,40.67,9-1.78,21.28-.16,28.07,6.13l26.75,24.77a15.77,15.77,0,0,1,.35,23.07l-50,49.16c-6.59,6.47-15.31,9.19-19.5,6.13s-11.44.81-16.13,8.76l-20.55,34.54c-4.73,7.91-5.31,18.3-1.32,23.15s13.45,4.69,21.17-.39l37.76-24.85c7.72-5.08,11.32-11.75,8-14.89s-0.66-11,5.85-17.6l49.66-50.21a17.41,17.41,0,0,1,24-.54l114.25,105.88a16.56,16.56,0,0,0,23.53-1l23.65-25.78a17,17,0,0,0-.85-23.8l-89.4-84.4a16.63,16.63,0,0,1-.62-23.57l111.66-117A17,17,0,0,0,3416.62-1942.59Zm-60.09,241a19.18,19.18,0,0,1,19.19,19.19,19.22,19.22,0,0,1-19.19,19.23,19.22,19.22,0,0,1-19.19-19.23A19.16,19.16,0,0,1,3356.53-1701.56Zm-83.24-116.08a14.42,14.42,0,0,1-10.35-4.38,14.4,14.4,0,0,1,.31-20.39l105.69-102.47a14.44,14.44,0,0,1,20.39.31,14.44,14.44,0,0,1-.31,20.39L3283.29-1821.7A14.31,14.31,0,0,1,3273.29-1817.63Z" transform="translate(-3041.69 2005.6)"/></svg>