<svg id="Camada_1" data-name="Camada 1" xmlns="http://www.w3.org/2000/svg" viewBox="0 0 468 334.31"><defs><style>.cls-1,.cls-4{fill:#fff;}.cls-2,.cls-3{fill:#eb7935;}.cls-2,.cls-3,.cls-4{stroke:#00376c;stroke-width:1.94px;}.cls-2{stroke-linejoin:bevel;}</style></defs><title>logo_sistema</title><path class="cls-1" d="M261.14,488H272.7v1.79c0,4.72,1.46,8.06,4.39,9.85s8.79,2.69,17.66,2.69q14.89,0,18.31-2.69t3.42-10.5c0-5-1-8.38-2.85-10.09S307,476.4,299.55,476c-2.77-.16-6.51-0.33-11.31-0.49-10.34-.24-16.52-1-18.47-2.12a14,14,0,0,1-6.27-6.59c-1.22-2.77-1.87-6.75-1.87-12,0-8.54,2.2-14.32,6.51-17.33s13.92-4.56,28.73-4.56c11.47,0,19.21,1.46,23.27,4.31s6.1,8,6.1,15.14H314.85v-0.73q0-5.13-4.39-7.08c-3-1.3-8.87-2-17.66-2-8.54,0-13.92.81-16.28,2.36s-3.5,4.8-3.5,9.77a22.26,22.26,0,0,0,.65,6.35,5.26,5.26,0,0,0,2.36,2.77c2.28,1.22,7.41,2,15.22,2.12,2,0.08,3.58.08,4.64,0.16q9.64,0.37,15.14,1a26.86,26.86,0,0,1,7.81,1.71,14.55,14.55,0,0,1,7.32,6.75c1.46,2.93,2.12,7.16,2.12,12.78s-0.73,10-2.12,12.94a20,20,0,0,1-7.65,7.81c-1.63,1.06-4.39,1.87-8.14,2.28a129.6,129.6,0,0,1-15.71.73c-13.67,0-22.7-1.55-27.18-4.72s-6.59-8.87-6.59-17.25v-2Z" transform="translate(0.97 -403.49)"/><path class="cls-1" d="M7.81,512.53v-109H27.67L65,500.65l37-97.17H122v109H110V413.66L72.35,512.53H57.53L19.86,413.66v98.87h-12Zm189.61-19.61v-8.14q0-5.49-5.62-8.06c-3.74-1.71-9.68-2.6-17.82-2.6-7.49,0-12.45,1-15,2.85s-3.74,5.45-3.74,10.82c0,6.1,1.3,10.09,4,12.13s8,3,16,3c7.16,0,12.61-.9,16.44-2.6s5.7-4.23,5.7-7.49ZM198,504.48a15.33,15.33,0,0,1-8.38,7c-3.82,1.46-9.11,2.2-16,2.2-12,0-20.18-1.71-24.25-5.21s-6.18-9.85-6.18-19.29a44,44,0,0,1,1.46-12.78,15.55,15.55,0,0,1,4.72-7.41,17.55,17.55,0,0,1,8.14-3.34,92.83,92.83,0,0,1,15.46-1c7,0,12.29.57,16,1.71a14.6,14.6,0,0,1,8.3,5.78V458.9c0-6.27-1.22-10.34-3.66-12.29s-8.54-2.77-18.39-2.77c-7.16,0-11.88.73-14.24,2.28s-3.58,4.31-3.66,8.38H146v-1.79c0-6.59,2.12-11.31,6.43-14.08s11.64-4.23,22.13-4.23a119.87,119.87,0,0,1,18.64,1.06c4.23,0.65,7.41,1.79,9.44,3.34a13.79,13.79,0,0,1,4.72,6.51c0.9,2.6,1.38,7,1.38,13.35v54H198.4l-0.49-8.14H198Z" transform="translate(0.97 -403.49)"/><path class="cls-1" d="M265.86,661V583.9h11v10.58a17.78,17.78,0,0,1,9-8.79c4.07-1.87,9.52-2.85,16.28-2.85q15.14,0,21.24,6.1t6.1,21.48V661H318V612.87c0-8.06-1.14-13.35-3.58-15.87s-7-3.82-13.83-3.82c-8.06,0-13.92,1.87-17.66,5.53s-5.62,9.52-5.62,17.5V661H265.86Zm78-67.38v-9.77h10.82v-2c0-.73-0.08-1.79-0.08-3.17q0-14.77,5.13-20.75c3.42-4,9.44-6,17.9-6,2.2,0,4.31.08,6.43,0.16s4.23,0.24,6.27.41v10.34c-0.65-.08-1.46-0.08-2.6-0.16-3.34-.08-5.7-0.16-7-0.16-5.86,0-9.85.9-11.8,2.69S366,571.37,366,578.53v5.21h24.33v9.77H366v67.38H354.65V593.5H343.82ZM455.07,629V615.8q0-14.53-3.66-18.55c-2.44-2.69-7.65-4-15.54-4h-5.37c-7.89,0-13,1.3-15.46,4s-3.66,8.87-3.66,18.64v13.18c0,9.77,1.22,16,3.66,18.64s7.57,4,15.38,4h5.37c7.81,0,13-1.38,15.54-4s3.74-8.87,3.74-18.64V629Zm-24.41,33c-11.56,0-19.61-2.28-24.17-6.75s-6.84-12.37-6.84-23.68V613.2c0-11.31,2.28-19.21,6.84-23.76s12.61-6.75,24.09-6.75h5.37c11.56,0,19.61,2.28,24.17,6.75S467,601.8,467,613.2v18.31q0,17-6.84,23.68c-4.56,4.48-12.61,6.67-24.09,6.67h-5.29Z" transform="translate(0.97 -403.49)"/><polygon class="cls-1" points="232.33 257.4 232.33 31.33 244.45 31.33 244.45 257.4 232.33 257.4"/><g id="Camada_1-2" data-name="Camada 1-2"><g id="_714411488" data-name=" 714411488"><polygon class="cls-2" points="118.19 333.09 134.38 309.44 134.38 243.87 118.19 262.64 118.19 333.09"/><polygon class="cls-2" points="188.63 262.64 199.92 243.87 199.92 200.43 188.63 216.11 188.63 262.64"/><polygon class="cls-2" points="188.63 216.11 199.92 200.43 134.38 200.43 118.19 216.11 188.63 216.11"/><polygon class="cls-2" points="118.19 216.11 134.38 200.43 134.38 134.89 118.19 145.7 118.19 216.11"/><polygon class="cls-2" points="118.19 145.7 134.38 134.89 91.18 134.89 71.38 145.7 118.19 145.7"/><polygon class="cls-2" points="71.38 216.11 91.18 200.43 25.64 200.43 0.97 216.11 71.38 216.11"/><path class="cls-3" d="M70.41,736.57h46.53V666.12h70.45V619.59H116.94V549.18H70.41v70.45H0.16v46.53H70.61v70.45Z" transform="translate(0.97 -403.49)"/><polygon class="cls-4" points="71.38 333.09 118.19 333.09 118.19 262.64 134.38 262.64 188.63 262.64 188.63 216.11 118.19 216.11 118.19 145.7 71.38 145.7 71.38 200.43 71.38 216.11 0.97 216.11 0.97 262.64 71.38 262.64 71.38 333.09"/></g></g></svg>