<svg id="Camada_1" data-name="Camada 1" xmlns="http://www.w3.org/2000/svg" viewBox="0 0 454.57 221.82"><defs><style>.cls-1,.cls-4{fill:#fff;}.cls-2,.cls-3{fill:#eb7935;}.cls-2,.cls-3,.cls-4{stroke:#00376c;stroke-width:1.06px;}.cls-2{stroke-linejoin:bevel;}</style></defs><title>logo_sistema</title><path class="cls-1" d="M250.18,437.51h11.56v1.79c0,4.72,1.46,8.06,4.39,9.85s8.79,2.69,17.66,2.69q14.89,0,18.31-2.69t3.42-10.5c0-5-1-8.38-2.85-10.09s-6.63-2.65-14.08-3.05c-2.77-.16-6.51-0.33-11.31-0.49-10.34-.24-16.52-1-18.47-2.12a14,14,0,0,1-6.27-6.59c-1.22-2.77-1.87-6.75-1.87-12,0-8.54,2.2-14.32,6.51-17.33s13.92-4.56,28.73-4.56c11.47,0,19.21,1.46,23.27,4.31s6.1,8,6.1,15.14H303.89v-0.73q0-5.13-4.39-7.08c-3-1.3-8.87-2-17.66-2-8.54,0-13.92.81-16.28,2.36s-3.5,4.8-3.5,9.77a22.26,22.26,0,0,0,.65,6.35,5.26,5.26,0,0,0,2.36,2.77c2.28,1.22,7.41,2,15.22,2.12,2,0.08,3.58.08,4.64,0.16q9.64,0.37,15.14,1a26.86,26.86,0,0,1,7.81,1.71,14.55,14.55,0,0,1,7.32,6.75c1.46,2.93,2.12,7.16,2.12,12.78s-0.73,10-2.12,12.94a20,20,0,0,1-7.65,7.81c-1.63,1.06-4.39,1.87-8.14,2.28a129.61,129.61,0,0,1-15.71.73c-13.67,0-22.7-1.55-27.18-4.72s-6.59-8.87-6.59-17.25v-2Z" transform="translate(3.15 -349.69)"/><path class="cls-1" d="M-3.15,462V353H16.71L54,450.16,91,353h20V462H99V363.17L61.39,462H46.57L8.9,363.17V462H-3.15Zm189.61-19.61v-8.14q0-5.49-5.62-8.06c-3.74-1.71-9.68-2.6-17.82-2.6-7.49,0-12.45,1-15,2.85s-3.74,5.45-3.74,10.82c0,6.1,1.3,10.09,4,12.13s8,3,16,3c7.16,0,12.61-.9,16.44-2.6s5.7-4.23,5.7-7.49ZM187,454a15.33,15.33,0,0,1-8.38,7c-3.82,1.46-9.11,2.2-16,2.2-12,0-20.18-1.71-24.25-5.21s-6.18-9.85-6.18-19.29a44,44,0,0,1,1.46-12.78,15.55,15.55,0,0,1,4.72-7.41,17.55,17.55,0,0,1,8.14-3.34,92.83,92.83,0,0,1,15.46-1c7,0,12.29.57,16,1.71a14.6,14.6,0,0,1,8.3,5.78V408.41c0-6.27-1.22-10.34-3.66-12.29s-8.54-2.77-18.39-2.77c-7.16,0-11.88.73-14.24,2.28s-3.58,4.31-3.66,8.38H135v-1.79c0-6.59,2.12-11.31,6.43-14.08s11.64-4.23,22.13-4.23A119.87,119.87,0,0,1,182.24,385c4.23,0.65,7.41,1.79,9.44,3.34a13.79,13.79,0,0,1,4.72,6.51c0.9,2.6,1.38,7,1.38,13.35v54H187.44L186.95,454H187v0Z" transform="translate(3.15 -349.69)"/><path class="cls-1" d="M249.9,570.51v-77.1h11V504a17.78,17.78,0,0,1,9-8.79c4.07-1.87,9.52-2.85,16.28-2.85q15.14,0,21.24,6.1t6.1,21.48v50.58H302V522.38c0-8.06-1.14-13.35-3.58-15.87s-7-3.82-13.83-3.82c-8.06,0-13.92,1.87-17.66,5.53s-5.62,9.52-5.62,17.5v44.79H249.9Zm78-67.38v-9.77h10.82v-2c0-.73-0.08-1.79-0.08-3.17q0-14.77,5.13-20.75c3.42-4,9.44-6,17.9-6,2.2,0,4.31.08,6.43,0.16s4.23,0.24,6.27.41v10.34c-0.65-.08-1.46-0.08-2.6-0.16-3.34-.08-5.7-0.16-7-0.16-5.86,0-9.85.9-11.8,2.69S350,480.88,350,488v5.21h24.33V503H350V570.4H338.69V503H327.86Zm111.21,35.38v-13.2q0-14.53-3.66-18.55c-2.44-2.69-7.65-4-15.54-4h-5.37c-7.89,0-13,1.3-15.46,4s-3.66,8.87-3.66,18.64v13.18c0,9.77,1.22,16,3.66,18.64s7.57,4,15.38,4h5.37c7.81,0,13-1.38,15.54-4s3.74-8.87,3.74-18.64v-0.07Zm-24.41,33c-11.56,0-19.61-2.28-24.17-6.75s-6.84-12.37-6.84-23.68V522.71c0-11.31,2.28-19.21,6.84-23.76s12.61-6.75,24.09-6.75H420c11.56,0,19.61,2.28,24.17,6.75S451,511.31,451,522.71V541q0,17-6.84,23.68c-4.56,4.48-12.61,6.67-24.09,6.67h-5.29Z" transform="translate(3.15 -349.69)"/><polygon class="cls-1" points="223.55 221.82 223.55 34.64 235.67 34.64 235.67 221.82 223.55 221.82"/><g id="Camada_1-2" data-name="Camada 1-2"><g id="_714411488" data-name=" 714411488"><polygon class="cls-2" points="409.24 109.17 418.12 96.21 418.12 60.27 409.24 70.56 409.24 109.17"/><polygon class="cls-2" points="447.85 70.56 454.04 60.27 454.04 36.46 447.85 45.05 447.85 70.56"/><polygon class="cls-2" points="447.85 45.05 454.04 36.46 418.12 36.46 409.24 45.05 447.85 45.05"/><polygon class="cls-2" points="409.24 45.05 418.12 36.46 418.12 0.53 409.24 6.46 409.24 45.05"/><polygon class="cls-2" points="409.24 6.46 418.12 0.53 394.44 0.53 383.58 6.46 409.24 6.46"/><polygon class="cls-2" points="383.58 45.05 394.44 36.46 358.51 36.46 344.99 45.05 383.58 45.05"/><path class="cls-3" d="M380.43,458.86h25.5V420.24h38.62v-25.5H405.94V356.14h-25.5v38.62H341.93v25.5h38.62v38.62Z" transform="translate(3.15 -349.69)"/><polygon class="cls-4" points="383.58 109.17 409.24 109.17 409.24 70.56 418.12 70.56 447.85 70.56 447.85 45.05 409.24 45.05 409.24 6.46 383.58 6.46 383.58 36.46 383.58 45.05 344.99 45.05 344.99 70.56 383.58 70.56 383.58 109.17"/></g></g></svg>