<svg id="Camada_1" data-name="Camada 1" xmlns="http://www.w3.org/2000/svg" viewBox="0 0 366.46 58.65"><defs><style>.cls-1{fill:#00376c;}.cls-2,.cls-3{fill:#eb7935;}.cls-2,.cls-3,.cls-4{stroke:#00376c;stroke-width:0.49px;}.cls-2{stroke-linejoin:bevel;}.cls-4{fill:#fff;}</style></defs><title>MaisInfo_azul</title><polygon class="cls-1" points="0 58.11 0 0 10.61 0 30.48 51.85 50.21 0 60.83 0 60.83 58.11 54.43 58.11 54.43 5.44 34.43 58.11 26.54 58.11 6.4 5.44 6.4 58.11 0 58.11"/><path id="_1" data-name="1" class="cls-1" d="M89.87,159.49v-4.35a4.6,4.6,0,0,0-3-4.35c-2-1-5.17-1.36-9.53-1.36-3.95,0-6.67.54-8,1.5s-2,2.86-2,5.72c0,3.27.68,5.44,2.18,6.53s4.22,1.63,8.57,1.63c3.81,0,6.8-.41,8.85-1.36S89.87,161.12,89.87,159.49Zm0.27,6.12a7.61,7.61,0,0,1-4.49,3.67,23.85,23.85,0,0,1-8.57,1.22c-6.4,0-10.75-1-12.93-2.72s-3.27-5.31-3.27-10.21a22.58,22.58,0,0,1,.82-6.8,8,8,0,0,1,2.59-3.95,10,10,0,0,1,4.35-1.77,43.11,43.11,0,0,1,8.3-.54,28.6,28.6,0,0,1,8.57,1A9,9,0,0,1,90,148.6v-7.08c0-3.4-.68-5.58-1.91-6.53s-4.63-1.5-9.8-1.5c-3.81,0-6.4.41-7.62,1.22s-1.91,2.31-1.91,4.49H62.66v-1c0-3.54,1.09-6,3.4-7.48s6.26-2.31,11.84-2.31a62.17,62.17,0,0,1,9.93.54,11.91,11.91,0,0,1,5,1.77,7.52,7.52,0,0,1,2.59,3.54c0.54,1.36.68,3.81,0.68,7.08v28.85H90.55l-0.27-4.35Z" transform="translate(11.23 -111.86)"/><path id="_2" data-name="2" class="cls-1" d="M108.25,118.8v-6.94h6.12v6.94h-6.12Zm0,51.3V129h6.12v41.1h-6.12Z" transform="translate(11.23 -111.86)"/><path id="_3" data-name="3" class="cls-1" d="M125.39,157.72h6.12v1c0,2.59.82,4.22,2.31,5.31s4.63,1.36,9.39,1.36c5.31,0,8.57-.54,9.8-1.5s1.91-2.86,1.91-5.58-0.54-4.49-1.5-5.31-3.54-1.5-7.48-1.63c-1.5-.14-3.54-0.14-6-0.27-5.58-.14-8.85-0.54-9.8-1.09a6.87,6.87,0,0,1-3.27-3.54,16.23,16.23,0,0,1-1-6.4c0-4.63,1.22-7.62,3.54-9.25s7.35-2.45,15.24-2.45c6.12,0,10.21.82,12.38,2.31s3.27,4.22,3.27,8h-6.12v-0.41a3.93,3.93,0,0,0-2.31-3.81c-1.63-.68-4.76-1.09-9.39-1.09s-7.48.41-8.71,1.22-1.91,2.59-1.91,5.17a9.87,9.87,0,0,0,.41,3.4,3.33,3.33,0,0,0,1.22,1.5c1.22,0.68,3.95,1.09,8.16,1.09a11.79,11.79,0,0,1,2.45.14c3.4,0.14,6.12.27,8,.54a16.27,16.27,0,0,1,4.22,1,8.4,8.4,0,0,1,3.95,3.54c0.82,1.63,1.09,3.81,1.09,6.8a18.47,18.47,0,0,1-1.09,6.94,9.79,9.79,0,0,1-4.08,4.08,11.22,11.22,0,0,1-4.35,1.22,66.47,66.47,0,0,1-8.44.41c-7.35,0-12.11-.82-14.42-2.59s-3.54-4.76-3.54-9.25v-1.09Z" transform="translate(11.23 -111.86)"/><polygon id="_4" data-name="4" class="cls-1" points="239.5 58.11 239.5 0 246.03 0 246.03 58.11 239.5 58.11"/><path id="_5" data-name="5" class="cls-1" d="M248.14,170v-41.1H254v5.58a8.81,8.81,0,0,1,4.76-4.63,21.79,21.79,0,0,1,8.71-1.5c5.44,0,9.12,1.09,11.29,3.27s3.27,6,3.27,11.43V170H275.9V144.38c0-4.35-.68-7.08-1.91-8.44s-3.67-2-7.35-2c-4.35,0-7.48,1-9.39,3s-3,5-3,9.25v24h-6.12V170Z" transform="translate(11.23 -111.86)"/><path id="_6" data-name="6" class="cls-1" d="M289.78,134v-5.17h5.72v-2.72c0-5.31,1-9,2.72-11s5-3.27,9.53-3.27a27.33,27.33,0,0,1,3.4.14,31.1,31.1,0,0,1,3.4.27v5.58a5.64,5.64,0,0,1-1.36-.14c-1.77,0-3-.14-3.67-0.14-3.13,0-5.31.54-6.26,1.36s-1.5,3.27-1.5,7.21v2.72h12.93V134H301.75V170h-6.12V134h-5.85Z" transform="translate(11.23 -111.86)"/><path id="_7" data-name="7" class="cls-1" d="M349,153v-7.08c0-5.17-.68-8.44-1.91-9.93s-4.08-2.18-8.3-2.18h-2.86q-6.33,0-8.16,2c-1.36,1.36-1.91,4.76-1.91,9.93v7.08c0,5.17.68,8.57,1.91,9.93s4.08,2,8.16,2h2.86c4.22,0,6.94-.68,8.3-2.18s2-4.76,2-9.93Zm-13.06,17.55c-6.12,0-10.48-1.22-12.93-3.54s-3.67-6.53-3.67-12.66v-9.8q0-9,3.67-12.66c2.45-2.45,6.67-3.54,12.79-3.54h2.86c6.12,0,10.48,1.22,12.93,3.54s3.67,6.67,3.67,12.66v9.8q0,9-3.67,12.66c-2.45,2.45-6.67,3.54-12.93,3.54h-2.72Z" transform="translate(11.23 -111.86)"/><g id="Camada_1-2" data-name="Camada_1"><g id="_714411488" data-name=" 714411488"><polygon class="cls-2" points="211.79 54.35 215.88 48.38 215.88 31.82 211.79 36.56 211.79 54.35"/><polygon class="cls-2" points="229.58 36.56 232.43 31.82 232.43 20.85 229.58 24.81 229.58 36.56"/><polygon class="cls-2" points="229.58 24.81 232.43 20.85 215.88 20.85 211.79 24.81 229.58 24.81"/><polygon class="cls-2" points="211.79 24.81 215.88 20.85 215.88 4.3 211.79 7.03 211.79 24.81"/><polygon class="cls-2" points="211.79 7.03 215.88 4.3 204.97 4.3 199.97 7.03 211.79 7.03"/><polygon class="cls-2" points="199.97 24.81 204.97 20.85 188.42 20.85 182.19 24.81 199.97 24.81"/><path class="cls-3" d="M188.74,166.21h11.75V148.42h17.79V136.67H200.49V118.89H188.74v17.79H171v11.75h17.79v17.79Z" transform="translate(11.23 -111.86)"/><polygon class="cls-4" points="199.97 54.35 211.79 54.35 211.79 36.56 215.88 36.56 229.58 36.56 229.58 24.81 211.79 24.81 211.79 7.03 199.97 7.03 199.97 20.85 199.97 24.81 182.19 24.81 182.19 36.56 199.97 36.56 199.97 54.35"/></g></g></svg>