<svg id="Camada_1" data-name="Camada 1" xmlns="http://www.w3.org/2000/svg" viewBox="0 0 380 380"><defs><style>.cls-1{fill:none;}.cls-2{fill:#fff;}</style></defs><title>orcamentos_ti</title><rect class="cls-1" width="380" height="380" rx="22.65" ry="22.65"/><path class="cls-2" d="M-1737.68-2016.56a189.79,189.79,0,0,0-190,190,189.79,189.79,0,0,0,190,190,189.79,189.79,0,0,0,190-190C-1547.68-1931.14-1632.58-2016.56-1737.68-2016.56Zm0,351a160.85,160.85,0,0,1-161-161,160.85,160.85,0,0,1,161-161,160.85,160.85,0,0,1,161,161A160.85,160.85,0,0,1-1737.68-1665.56Z" transform="translate(1927.68 2016.56)"/><path class="cls-2" d="M-1725.77-1744.77v27.44h-26.4v-25.37c-18.12-1-35.2-5.69-45.56-11.39l8.28-31.58c11.39,6.21,26.92,11.91,44.52,11.91,15.53,0,25.89-5.69,25.89-16.57,0-10.35-8.8-16.57-28.47-23.3-29-9.84-48.15-23.3-48.15-49.18,0-23.81,16.57-41.93,45.56-47.63v-25.37h26.4V-1913c18.12,1,30,4.66,38.83,8.8l-7.77,30.54c-6.73-3.11-19.16-9.32-38.83-9.32-17.6,0-23.3,7.77-23.3,15,0,8.8,9.32,14.5,32.1,23.3,32.1,11.39,45,25.89,45,50.22C-1677.63-1770.65-1694.71-1749.94-1725.77-1744.77Z" transform="translate(1927.68 2016.56)"/></svg>