<svg id="Camada_1" data-name="Camada 1" xmlns="http://www.w3.org/2000/svg" viewBox="0 0 380 380"><defs><style>.cls-1{fill:none;}.cls-2{fill:#fff;}</style></defs><title>pessoas_vitec</title><rect class="cls-1" width="380" height="380" rx="22.65" ry="22.65"/><path class="cls-2" d="M238.93-1922.57a69,69,0,0,1,32.13,51.3,55.43,55.43,0,0,0,23.55,5.27,55.73,55.73,0,0,0,55.73-55.73,55.73,55.73,0,0,0-55.73-55.73A55.73,55.73,0,0,0,238.93-1922.57Zm-36.51,114.11a55.73,55.73,0,0,0,55.73-55.73,55.73,55.73,0,0,0-55.73-55.73,55.74,55.74,0,0,0-55.74,55.73A55.74,55.74,0,0,0,202.42-1808.46Zm23.64,3.8H178.77a71.44,71.44,0,0,0-71.36,71.36v57.83l0.15,0.91,4,1.25c37.55,11.73,70.17,15.64,97,15.64,52.45,0,82.84-15,84.72-15.91l3.72-1.88h0.4v-57.84A71.42,71.42,0,0,0,226.06-1804.66Zm92.2-57.53H271.34a68.68,68.68,0,0,1-21.2,47.84,84.79,84.79,0,0,1,60.56,81.14v17.82c46.33-1.7,73-14.83,74.79-15.71l3.72-1.89h0.4v-57.85A71.44,71.44,0,0,0,318.27-1862.2ZM104.63-1866a55.36,55.36,0,0,0,29.64-8.6,69,69,0,0,1,25.93-44c0.06-1,.16-2.08.16-3.13a55.73,55.73,0,0,0-55.72-55.73,55.73,55.73,0,0,0-55.73,55.73A55.73,55.73,0,0,0,104.63-1866Zm50.05,51.63a68.72,68.72,0,0,1-21.18-47.57c-1.74-.13-3.46-0.27-5.24-0.27H81a71.44,71.44,0,0,0-71.36,71.35V-1733l0.15,0.89,4,1.26a334.56,334.56,0,0,0,80.36,15.1v-17.47A84.81,84.81,0,0,1,154.68-1814.36Z" transform="translate(-9.62 2007.56)"/></svg>