<svg id="Camada_1" data-name="Camada 1" xmlns="http://www.w3.org/2000/svg" viewBox="0 0 380 380"><defs><style>.cls-1{fill:none;}.cls-2{fill:#fff;}</style></defs><title>projetos</title><rect class="cls-1" width="380" height="380" rx="22.65" ry="22.65"/><path class="cls-2" d="M1470.41-2012.15H1641a9.06,9.06,0,0,0,1.08,1.71q45.13,45.15,90.34,90.23a8.75,8.75,0,0,1,2.9,6.85c-0.11,27.41-.06,54.82-0.08,82.24,0,2,.08,3.76,2,5a105.07,105.07,0,0,1,27.85,28.34,102.13,102.13,0,0,1,17.72,53.67,105.22,105.22,0,0,1-15.29,60.17,106,106,0,0,1-39.35,38.15,106.07,106.07,0,0,1-52.83,13.57q-99.69,0-199.37,0c-0.91,0-1.82,0-2.73,0a23.74,23.74,0,0,1-17.26-8.76c-4.16-5-5.51-10.85-5.51-17.21q0-163.87,0-327.74c0-.91,0-1.82,0-2.73,0.46-7.16,2.76-13.58,8.78-17.82C1462.63-2008.83,1466.67-2010.28,1470.41-2012.15Zm27.6,47.45v285h88.8c-22.45-38.09-24.78-76.78-1.68-114.66s58.56-53.8,103-51c0-.94,0-2,0-3.09q0-20.33,0-40.66c0-4.48,0-4.48-4.35-4.48H1616.6v-71.09H1498Zm237.49,225.48a59.67,59.67,0,0,0-59.63-59.2,59.56,59.56,0,0,0-59.16,59.61,59.58,59.58,0,0,0,59.58,59.22C1708.79-1679.65,1735.64-1706.68,1735.5-1739.22Z" transform="translate(-1426.66 2012.15)"/><path class="cls-1" d="M1498-1964.7H1616.6v71.09h67.22c4.35,0,4.35,0,4.35,4.48q0,20.33,0,40.66c0,1.08,0,2.16,0,3.09-44.49-2.82-79.89,13-103,51s-20.77,76.57,1.68,114.66H1498v-285Z" transform="translate(-1426.66 2012.15)"/><path class="cls-1" d="M1735.5-1739.22c0.14,32.54-26.71,59.58-59.21,59.62a59.58,59.58,0,0,1-59.58-59.22,59.56,59.56,0,0,1,59.16-59.61A59.67,59.67,0,0,1,1735.5-1739.22Zm-94.94,11.85c7.3,0,14.27.05,21.24,0,1.84,0,2.51.56,2.48,2.41-0.09,4.55,0,9.1,0,13.66,0,2.49,0,5,0,7.48h23.61v-23.57h23.4v-23.44h-23.59v-23.71c-7.41,0-14.57-.05-21.72.1-0.58,0-1.6,1.36-1.63,2.12-0.16,4.34-.08,8.7-0.08,13,0,2.78,0,5.56,0,8.76h-23.7v23.19Z" transform="translate(-1426.66 2012.15)"/><path class="cls-2" d="M1640.57-1727.37v-23.19h23.7c0-3.19,0-6,0-8.76,0-4.35-.08-8.7.08-13,0-.76,1-2.11,1.63-2.12,7.15-.15,14.31-0.1,21.72-0.1v23.71h23.59v23.44h-23.4v23.57h-23.61c0-2.5,0-5,0-7.48,0-4.55-.06-9.11,0-13.66,0-1.85-.64-2.44-2.48-2.41C1654.84-1727.32,1647.87-1727.37,1640.57-1727.37Z" transform="translate(-1426.66 2012.15)"/></svg>