<svg id="Camada_1" data-name="Camada 1" xmlns="http://www.w3.org/2000/svg" viewBox="0 0 380 380"><defs><style>.cls-1{fill:none;}.cls-2{fill:#fff;}</style></defs><title>resultados</title><rect class="cls-1" width="380" height="380" rx="22.65" ry="22.65"/><path class="cls-2" d="M2107.33-1762.28l-45.58-51L1947.87-1689c-13.55-29.06-8.58-60,8.5-76.85q47.39-46.68,94.78-93.36c4.49-4.41,9.28-8.51,15.76-14.42l40.65,44.13,116.56-118.78-31.37-20.19c3.24-1.47,76.24-28.47,127.33-46L2290.37-1887l-33.6-27.14Z" transform="translate(-1940.09 2016.15)"/><path class="cls-2" d="M2191.29-1638.13c0-50.63,1.63-98.14-.62-145.46-1.34-28.14,5.13-49.44,28.71-66,12.93-9.07,23.62-21.35,38.58-35.2,1,9,2.12,14.13,2.13,19.29,0.11,69.42-.33,138.85.38,208.26,0.16,15.46-5,20.4-19.95,19.34C2225.27-1639,2209.85-1638.13,2191.29-1638.13Z" transform="translate(-1940.09 2016.15)"/><path class="cls-2" d="M2174.85-1638.22c-19.06,0-36.94.7-54.68-.54-4-.28-10.5-7.29-10.63-11.37-0.93-28.86-.61-57.77-0.36-86.66,0-3.61.85-8.34,3.18-10.63,19.45-19.11,39.35-37.77,62.49-59.78v169Z" transform="translate(-1940.09 2016.15)"/><path class="cls-2" d="M2060.58-1779.31c24.23,14.05,32.67,30.6,30.93,54.65-2,27.88-.47,56-0.47,85.27h-67c0-32.77-3.95-65.33,1.62-96.18C2028.51-1751.62,2048.22-1764.63,2060.58-1779.31Z" transform="translate(-1940.09 2016.15)"/><path class="cls-2" d="M2006.72-1725.93v87.72c-19.07,0-37.43.33-55.75-.3-3.41-.12-9.59-4.21-9.52-6.3,0.28-7.88,0-18.16,4.62-23.1C1964-1686.94,1983.72-1704.25,2006.72-1725.93Z" transform="translate(-1940.09 2016.15)"/><path class="cls-1" d="M2198-1974" transform="translate(-1940.09 2016.15)"/><path class="cls-2" d="M2180-1946" transform="translate(-1940.09 2016.15)"/><line class="cls-1" x1="252.91" y1="47.15" x2="242.91" y2="40.15"/></svg>