<svg id="Camada_1" data-name="Camada 1" xmlns="http://www.w3.org/2000/svg" viewBox="0 0 380 380"><defs><style>.cls-1{fill:none;}.cls-2{fill:#fff;}</style></defs><title>sistemas</title><rect class="cls-1" width="380" height="380" rx="22.65" ry="22.65"/><path class="cls-2" d="M-1239.4-1699.91c-49.05,0-98.11.08-147.16,0-26.1-.06-41.42-15.38-41.47-41.53q-0.16-91.65,0-183.3c0-25.88,15.61-41.5,41.54-41.53q148.42-.14,296.83,0c25.89,0,41.43,15.68,41.47,41.6q0.15,91.65,0,183.3c0,26.11-15.4,41.4-41.54,41.46C-1139.61-1699.84-1189.5-1699.91-1239.4-1699.91Zm152.51-227.49h-302.39v188.82h302.39v-188.82Z" transform="translate(1428.1 1998.56)"/><path class="cls-2" d="M-1278.14-1688.17l2-17.8h72.66l2,17.25h55.5v38h-187.31v-37.42h55.2Z" transform="translate(1428.1 1998.56)"/></svg>