<svg id="Camada_1" data-name="Camada 1" xmlns="http://www.w3.org/2000/svg" viewBox="0 0 380 380"><defs><style>.cls-1{fill:none;}.cls-2{fill:#fff;}.cls-3{fill:#ff0;}</style></defs><title>unidades</title><rect class="cls-1" width="380" height="380" rx="22.65" ry="22.65"/><path class="cls-2" d="M-609.7-1706.87c0,14.18.22,28.37-.06,42.54-0.44,22.83-16.35,39.19-39.07,39.79-18.17.48-36.37-.1-54.54,0.3-6.8.15-8.68-2.33-8.6-8.85,0.3-25.81-.27-51.64.33-77.45,0.21-8.89-2.7-11.11-11.13-10.8-16.7.61-33.46,0.58-50.17,0-7.86-.27-9.77,2.46-9.65,9.93,0.41,25.81-.11,51.64.32,77.45,0.13,7.76-2.44,10-9.94,9.74-17.08-.48-34.18,0-51.27-0.21-22.8-.22-41.52-14.45-41.32-41.69q0.31-42.54,0-85.09c-0.05-6.68,2.14-11.67,6.87-16.38q59.56-59.2,118.85-118.69c10-9.93,13.78-10,23.53-.27,39.64,39.53,79.11,79.22,118.83,118.66,5,5,7.31,10.3,7.14,17.36C-609.93-1736-609.69-1721.41-609.7-1706.87Z" transform="translate(937.34 1991.56)"/><path class="cls-2" d="M-664.72-1923.91c0-5.77-.14-11.54,0-17.3,0.4-13.69,9.73-23.62,22-23.55s21.63,10,21.84,23.81c0.28,18.18.31,36.37,0,54.55-0.13,7,1.66,12.21,6.95,17.26,16.28,15.56,32,31.68,47.8,47.77,10.8,11,11.72,25,2.64,33.76-9.52,9.17-22.69,8.13-33.73-2.89q-67.53-67.43-135-134.95c-13.28-13.29-16.63-13.26-30.17.29Q-829.5-1858-896.64-1791c-10.37,10.36-20.23,12.4-30.16,6.4-12.78-7.73-14.27-23.55-2.66-35.3,31.44-31.81,63.16-63.34,94.77-95,15.16-15.18,30.21-30.47,45.52-45.5,24.7-24.25,57.66-24.93,82.73-1,13.3,12.68,25.38,26.63,38,40Z" transform="translate(937.34 1991.56)"/><path class="cls-3" d="M-723.15-1817.26v-11.79h0.21v11.88Z" transform="translate(937.34 1991.56)"/></svg>